<svg width="170" height="24" viewBox="0 0 170 24" fill="none" xmlns="http://www.w3.org/2000/svg">
<g clip-path="url(#clip0_2097_1089)">
<path d="M36.3359 0.0532837L34.9199 4.05097H20.4657C18.4886 4.05097 16.645 4.55734 14.9351 5.57009C13.1985 6.58283 11.8893 7.91539 10.9809 9.51447H32.9962L31.5802 13.4855H9.61832C9.59161 15.2445 10.0992 16.6303 11.2214 17.5898C12.2634 18.4959 13.6527 18.9756 15.416 19.0023H29.5763L28.187 22.9467H12.771C9.37787 22.9467 6.51909 22.3337 4.16794 21.1344C1.38931 19.6952 0 17.6431 0 14.978C0 13.9919 0.187023 12.9258 0.614504 11.8065C2.32443 6.95595 6.25191 3.57124 12.3435 1.59905C15.5229 0.559657 18.4351 0.0532837 21.1336 0.0532837H36.3092H36.3359Z" fill="#228FC0"/>
<path d="M61.5572 12.2596C59.1526 12.9258 56.9083 13.3523 54.8243 13.4855C52.4732 13.6721 50.4427 14.1251 48.706 14.8714C46.4083 15.8308 44.9656 17.19 44.3243 18.9757H64.8969L63.5075 22.9467H33.7976L35.5075 18.3893C36.7098 15.0313 40.0495 12.5261 45.5266 10.9003C48.7327 9.9409 51.3778 9.46118 53.4885 9.46118C57.2556 9.46118 59.4198 8.55504 60.0343 6.82271C60.1144 6.6095 60.1411 6.39629 60.1411 6.20973C60.1411 5.4102 59.4999 4.79722 58.2175 4.4241C57.3091 4.15759 56.2938 4.02433 55.1717 4.02433H41.0648L42.4808 0H60.4617C62.5724 0 64.5762 0.399768 66.4732 1.1993C68.8511 2.21205 70.0266 3.59791 70.0266 5.33024C70.0266 5.80997 69.9198 6.31634 69.7327 6.84936C68.9045 9.16802 66.206 10.9803 61.5839 12.2862L61.5572 12.2596Z" fill="#228FC0"/>
</g>
<path d="M78.278 10.4H80.852V18.698C80.852 19.418 81.038 20 81.41 20.444C81.794 20.876 82.358 21.092 83.102 21.092C83.846 21.092 84.404 20.876 84.776 20.444C85.16 20 85.352 19.418 85.352 18.698V10.4H87.926V18.86C87.926 19.604 87.806 20.258 87.566 20.822C87.326 21.386 86.984 21.86 86.54 22.244C86.108 22.628 85.598 22.916 85.01 23.108C84.422 23.312 83.786 23.414 83.102 23.414C82.406 23.414 81.764 23.312 81.176 23.108C80.588 22.916 80.078 22.628 79.646 22.244C79.214 21.86 78.878 21.386 78.638 20.822C78.398 20.258 78.278 19.604 78.278 18.86V10.4ZM90.5496 10.4H93.1596V23H90.5496V10.4ZM102.37 18.77C102.634 19.238 102.922 19.646 103.234 19.994C103.558 20.342 103.912 20.612 104.296 20.804C104.68 20.996 105.094 21.092 105.538 21.092C106.054 21.092 106.474 20.96 106.798 20.696C107.122 20.432 107.284 20.072 107.284 19.616C107.284 19.22 107.182 18.902 106.978 18.662C106.786 18.422 106.492 18.212 106.096 18.032C105.712 17.84 105.238 17.636 104.674 17.42C104.374 17.312 104.026 17.168 103.63 16.988C103.246 16.796 102.88 16.556 102.532 16.268C102.184 15.968 101.896 15.608 101.668 15.188C101.44 14.756 101.326 14.24 101.326 13.64C101.326 12.92 101.506 12.302 101.866 11.786C102.238 11.258 102.736 10.856 103.36 10.58C103.996 10.292 104.704 10.148 105.484 10.148C106.288 10.148 106.978 10.286 107.554 10.562C108.142 10.826 108.628 11.168 109.012 11.588C109.408 11.996 109.714 12.422 109.93 12.866L107.914 13.982C107.746 13.682 107.542 13.412 107.302 13.172C107.074 12.92 106.81 12.722 106.51 12.578C106.21 12.422 105.868 12.344 105.484 12.344C104.98 12.344 104.602 12.464 104.35 12.704C104.098 12.932 103.972 13.202 103.972 13.514C103.972 13.826 104.074 14.102 104.278 14.342C104.482 14.57 104.794 14.792 105.214 15.008C105.634 15.212 106.162 15.422 106.798 15.638C107.206 15.782 107.596 15.962 107.968 16.178C108.352 16.394 108.694 16.658 108.994 16.97C109.306 17.27 109.546 17.63 109.714 18.05C109.894 18.458 109.984 18.932 109.984 19.472C109.984 20.084 109.864 20.63 109.624 21.11C109.384 21.59 109.054 21.998 108.634 22.334C108.214 22.658 107.74 22.904 107.212 23.072C106.696 23.252 106.15 23.342 105.574 23.342C104.806 23.342 104.086 23.198 103.414 22.91C102.754 22.61 102.178 22.208 101.686 21.704C101.194 21.2 100.81 20.654 100.534 20.066L102.37 18.77ZM113.829 20.138L114.135 18.104H120.183L120.489 20.138H113.829ZM117.123 14.486L115.233 18.824L115.287 19.4L113.631 23H110.733L117.123 9.662L123.513 23H120.597L118.977 19.508L119.013 18.86L117.123 14.486ZM127.652 15.926L126.842 23H124.16L126.032 9.77L131.306 17.906L136.58 9.77L138.452 23H135.77L134.96 15.926L131.306 21.83L127.652 15.926ZM140.472 10.4H143.046V23H140.472V10.4ZM142.038 12.578V10.4H144.54C145.536 10.4 146.382 10.562 147.078 10.886C147.786 11.21 148.326 11.672 148.698 12.272C149.07 12.872 149.256 13.586 149.256 14.414C149.256 15.23 149.07 15.944 148.698 16.556C148.326 17.156 147.786 17.618 147.078 17.942C146.382 18.266 145.536 18.428 144.54 18.428H142.038V16.25H144.54C145.224 16.25 145.764 16.094 146.16 15.782C146.556 15.47 146.754 15.014 146.754 14.414C146.754 13.802 146.556 13.346 146.16 13.046C145.764 12.734 145.224 12.578 144.54 12.578H142.038ZM151.247 10.4H153.821V20.75H158.843V23H151.247V10.4ZM161.973 23V20.822H168.327V23H161.973ZM161.973 12.578V10.4H168.327V12.578H161.973ZM161.973 17.384V15.242H167.967V17.384H161.973ZM160.317 10.4H162.801V23H160.317V10.4Z" fill="#228FC0"/>
<defs>
<clipPath id="clip0_2097_1089">
<rect width="70" height="23" fill="white"/>
</clipPath>
</defs>
</svg>
